<svg id="visual" viewBox="0 0 900 600" width="900" height="600" xmlns="http://www.w3.org/2000/svg" xmlns:xlink="http://www.w3.org/1999/xlink" version="1.1"><path d="M0 551L30 549.2C60 547.3 120 543.7 180 551.7C240 559.7 300 579.3 360 581.8C420 584.3 480 569.7 540 569.3C600 569 660 583 720 589.8C780 596.7 840 596.3 870 596.2L900 596L900 601L870 601C840 601 780 601 720 601C660 601 600 601 540 601C480 601 420 601 360 601C300 601 240 601 180 601C120 601 60 601 30 601L0 601Z" fill="#FFBF23"></path></svg>