<svg id="visual" viewBox="0 0 900 600" width="900" height="600" xmlns="http://www.w3.org/2000/svg" xmlns:xlink="http://www.w3.org/1999/xlink" version="1.1"><path d="M0 584L30 586.2C60 588.3 120 592.7 180 594.8C240 597 300 597 360 595.7C420 594.3 480 591.7 540 591.7C600 591.7 660 594.3 720 586.5C780 578.7 840 560.3 870 551.2L900 542L900 601L870 601C840 601 780 601 720 601C660 601 600 601 540 601C480 601 420 601 360 601C300 601 240 601 180 601C120 601 60 601 30 601L0 601Z" fill="#FFBF23"></path></svg>