<svg id="visual" viewBox="0 0 900 600" width="900" height="600" xmlns="http://www.w3.org/2000/svg" xmlns:xlink="http://www.w3.org/1999/xlink" version="1.1"><rect x="0" y="0" width="900" height="600" fill="#001220"></rect><path d="M0 514L75 518.2C150 522.3 300 530.7 450 539.5C600 548.3 750 557.7 825 562.3L900 567L900 601L825 601C750 601 600 601 450 601C300 601 150 601 75 601L0 601Z" fill="#ffbf23"></path><path d="M0 577L75 577.5C150 578 300 579 450 578.5C600 578 750 576 825 575L900 574L900 601L825 601C750 601 600 601 450 601C300 601 150 601 75 601L0 601Z" fill="#ffbf23"></path></svg>